<svg id="USER_INTERFACE" viewBox="0 0 512 512" xmlns="http://www.w3.org/2000/svg" xmlns:xlink="http://www.w3.org/1999/xlink" data-name="USER INTERFACE"><linearGradient id="linear-gradient" gradientUnits="userSpaceOnUse" x1=".61" x2="512.61" y1="256" y2="256"><stop offset="0" stop-color="#283451"/><stop offset=".6" stop-color="#384c6c"/><stop offset="1" stop-color="#465a77"/></linearGradient><path d="m507.43 111.56a117.13 117.13 0 0 0 -106.38-106.38c-34-3-80.63-5.18-144.44-5.18s-110.46 2.17-144.45 5.18a117.13 117.13 0 0 0 -106.38 106.38c-3 33.98-5.17 80.62-5.17 144.44s2.17 110.46 5.17 144.45a117.13 117.13 0 0 0 106.38 106.37c34 3 80.63 5.18 144.45 5.18s110.45-2.17 144.44-5.18a117.13 117.13 0 0 0 106.38-106.37c3-34 5.18-80.63 5.18-144.45s-2.18-110.46-5.18-144.44zm-128.43 292.74h-6.91a51.95 51.95 0 0 1 -89.16 0h-148.68a26.71 26.71 0 1 1 0-53.42h148.64a51.95 51.95 0 0 1 89.16 0h6.95a26.71 26.71 0 1 1 0 53.42zm0-121.59h-146.51a52 52 0 0 1 -89.17 0h-9.07a26.71 26.71 0 0 1 0-53.42h9.07a52 52 0 0 1 89.17 0h146.51a26.71 26.71 0 1 1 0 53.42zm0-121.59h-6.91a51.95 51.95 0 0 1 -89.16 0h-148.68a26.71 26.71 0 1 1 0-53.42h148.64a51.95 51.95 0 0 1 89.16 0h6.95a26.71 26.71 0 1 1 0 53.42z" fill="url(#linear-gradient)"/></svg>