<svg id="USER_INTERFACE" viewBox="0 0 512 512" xmlns="http://www.w3.org/2000/svg" xmlns:xlink="http://www.w3.org/1999/xlink" data-name="USER INTERFACE"><linearGradient id="linear-gradient" gradientUnits="userSpaceOnUse" x2="513.21" y1="255.87" y2="255.87"><stop offset="0" stop-color="#ed6c14"/><stop offset=".6" stop-color="#ff9045"/><stop offset="1" stop-color="#ffb54a"/></linearGradient><path d="m487.17 254.71h-7.46c.13 9.23.16 18.94.06 29.18q-.12 12.58-.46 24.15c-1.26 42.91-4.45 75.7-7.93 100.72-7.09 48.94-48.36 91.13-96.05 98-7.22 1-15.11 2-23.72 2.87q-11.12 1.14-23.88 2.09c.57-12.07 1-24 1.23-33.77.71-27.25.75-80.86-.89-98.47a51.44 51.44 0 0 0 -14.71-31.74 52.06 52.06 0 0 0 -31.59-15h-.36c-14.54-1.49-22.54-.82-22.54-.82a194 194 0 0 0 -27.06.82h-.37a51.53 51.53 0 0 0 -46.3 46.72c-1.64 17.6-1.61 71.21-.89 98.47.24 9.79.66 21.72 1.22 33.79-8.7-.63-16.8-1.36-24.35-2.14-8.42-.88-16.15-1.83-23.24-2.82-47.69-6.89-89-49.08-96-98-3.53-25.02-6.72-57.76-7.98-100.76q-.33-11.58-.46-24.15c-.1-10.24-.07-19.95.07-29.18h-7.51c-21.25-.02-33.67-23.2-20.73-39.87 1.28-1.66 2.63-3.3 4-4.92 7.3-8.36 15.73-17.78 25.58-28.38 16.9-18.24 37.88-40 63.65-66 40.75-41.1 71.22-70.18 93.91-90.25 18.86-16.68 41.37-25.25 63.85-25.25h.74c22.48 0 45 8.57 63.85 25.26 22.69 20.07 53.16 49.15 93.92 90.25 25.76 26 46.74 47.75 63.64 66 9.82 10.6 18.28 20 25.55 28.38q2.11 2.43 4 4.92c12.92 16.66.5 39.84-20.79 39.9z" fill="url(#linear-gradient)"/></svg>