<svg id="USER_INTERFACE" viewBox="0 0 512 512" xmlns="http://www.w3.org/2000/svg" xmlns:xlink="http://www.w3.org/1999/xlink" data-name="USER INTERFACE"><linearGradient id="linear-gradient" gradientUnits="userSpaceOnUse" x1="50.49" x2="462.73" y1="256" y2="256"><stop offset="0" stop-color="#0080de"/><stop offset=".6" stop-color="#49bcff"/><stop offset="1" stop-color="#61caff"/></linearGradient><path d="m263.57 511.9c-39.79 1-118-5.19-143.52-11.27-17.42-3.67-33.79-13.81-46.13-27.92s-20.12-31.55-21.92-49.17l-.06-.54a285.44 285.44 0 0 1 -1.23-39.62s-1-11.67 1.24-32.84c0-.18 0-.36.05-.53a76.2 76.2 0 0 1 22-45.92 77.61 77.61 0 0 1 46.27-22.28c25.63-2.71 103.63-4.19 143.27-4.19s103.27 1.47 128.9 4.19a77.59 77.59 0 0 1 46.27 22.29 76.26 76.26 0 0 1 22 45.93l.06.53c2.21 21.18 1.91 32.79 1.91 32.8a374.4 374.4 0 0 1 -1.91 39.69c0 .18 0 .36-.05.54-1.81 17.63-9.6 35.05-21.94 49.18s-28.68 24.23-46.1 27.91c-25.57 5.79-89.32 11.49-129.11 11.22zm-9.57-511.9a123.93 123.93 0 1 0 124 123.92 123.93 123.93 0 0 0 -124-123.92z" fill="url(#linear-gradient)"/></svg>